# xmcd CD database file
#
# Track frame offsets:
#	150
#	16209
#	34339
#	50341
#
# Disc length: 910 seconds
#
# Revision: 0
# Processed by: cddbd v1.5PL3 Copyright (c) Steve Scherf et al.
# Submitted via: CDex 1.50beta10
#
DISCID=29038c04
DTITLE=CooRie - 流れ星☆
DYEAR=2003
DGENRE=JPop
TTITLE0=流れ星☆
TTITLE1=ステレオ
TTITLE2=流れ星☆　-off vocal-
TTITLE3=ステレオ　-off vocal-
EXTD=YEAR: 2003
EXTT0=
EXTT1=
EXTT2=
EXTT3=
PLAYORDER=
